<mxfile host="Electron" modified="2024-05-03T08:09:40.203Z" agent="Mozilla/5.0 (Macintosh; Intel Mac OS X 10_15_7) AppleWebKit/537.36 (KHTML, like Gecko) draw.io/24.1.0 Chrome/120.0.6099.109 Electron/28.1.0 Safari/537.36" etag="0AonWE19fs_4ZAZRHUyE" version="24.1.0" type="device" pages="3">
  <diagram name="Page-1" id="xb9xdMQho8fJBTPO2hIP">
    <mxGraphModel dx="967" dy="568" grid="1" gridSize="10" guides="1" tooltips="1" connect="1" arrows="1" fold="1" page="1" pageScale="1" pageWidth="827" pageHeight="1169" math="0" shadow="0">
      <root>
        <mxCell id="0" />
        <mxCell id="1" parent="0" />
        <mxCell id="jweQrzOuwB0j65Ltw7Oi-19" style="edgeStyle=orthogonalEdgeStyle;rounded=0;orthogonalLoop=1;jettySize=auto;html=1;exitX=1;exitY=0;exitDx=0;exitDy=0;entryX=0;entryY=0.5;entryDx=0;entryDy=0;curved=1;strokeColor=#FF99CC;fillColor=#dae8fc;" parent="1" source="jweQrzOuwB0j65Ltw7Oi-1" target="jweQrzOuwB0j65Ltw7Oi-4" edge="1">
          <mxGeometry relative="1" as="geometry" />
        </mxCell>
        <mxCell id="jweQrzOuwB0j65Ltw7Oi-21" style="edgeStyle=orthogonalEdgeStyle;rounded=0;orthogonalLoop=1;jettySize=auto;html=1;exitX=1;exitY=0.5;exitDx=0;exitDy=0;entryX=0;entryY=0.5;entryDx=0;entryDy=0;curved=1;strokeColor=#FF99CC;fillColor=#dae8fc;" parent="1" source="jweQrzOuwB0j65Ltw7Oi-1" target="jweQrzOuwB0j65Ltw7Oi-6" edge="1">
          <mxGeometry relative="1" as="geometry" />
        </mxCell>
        <mxCell id="jweQrzOuwB0j65Ltw7Oi-1" value="AAVS &lt;br&gt;Raw HDF5" style="ellipse;whiteSpace=wrap;html=1;fillColor=#e1d5e7;strokeColor=#9673a6;" parent="1" vertex="1">
          <mxGeometry x="40" y="255" width="140" height="70" as="geometry" />
        </mxCell>
        <mxCell id="jweQrzOuwB0j65Ltw7Oi-11" style="edgeStyle=orthogonalEdgeStyle;rounded=0;orthogonalLoop=1;jettySize=auto;html=1;exitX=1;exitY=0.5;exitDx=0;exitDy=0;entryX=0;entryY=0.5;entryDx=0;entryDy=0;curved=1;strokeColor=#FF99CC;fillColor=#dae8fc;" parent="1" source="jweQrzOuwB0j65Ltw7Oi-4" target="jweQrzOuwB0j65Ltw7Oi-8" edge="1">
          <mxGeometry relative="1" as="geometry" />
        </mxCell>
        <mxCell id="jweQrzOuwB0j65Ltw7Oi-15" style="edgeStyle=orthogonalEdgeStyle;rounded=0;orthogonalLoop=1;jettySize=auto;html=1;exitX=1;exitY=0.25;exitDx=0;exitDy=0;entryX=0;entryY=0.5;entryDx=0;entryDy=0;curved=1;strokeColor=#FF99CC;fillColor=#dae8fc;" parent="1" source="jweQrzOuwB0j65Ltw7Oi-4" target="jweQrzOuwB0j65Ltw7Oi-7" edge="1">
          <mxGeometry relative="1" as="geometry" />
        </mxCell>
        <mxCell id="jweQrzOuwB0j65Ltw7Oi-16" style="edgeStyle=orthogonalEdgeStyle;rounded=0;orthogonalLoop=1;jettySize=auto;html=1;exitX=1;exitY=0.75;exitDx=0;exitDy=0;entryX=0;entryY=0.5;entryDx=0;entryDy=0;curved=1;strokeColor=#FF99CC;fillColor=#dae8fc;" parent="1" source="jweQrzOuwB0j65Ltw7Oi-4" target="jweQrzOuwB0j65Ltw7Oi-9" edge="1">
          <mxGeometry relative="1" as="geometry" />
        </mxCell>
        <mxCell id="xjqnHqKoICW9RiijOt21-3" value="" style="edgeStyle=orthogonalEdgeStyle;rounded=0;orthogonalLoop=1;jettySize=auto;html=1;fillColor=#f8cecc;strokeColor=#FF99CC;endArrow=classic;endFill=1;startArrow=none;startFill=0;dashed=1;" edge="1" parent="1" source="jweQrzOuwB0j65Ltw7Oi-4" target="jweQrzOuwB0j65Ltw7Oi-6">
          <mxGeometry relative="1" as="geometry">
            <Array as="points">
              <mxPoint x="340" y="220" />
              <mxPoint x="340" y="220" />
            </Array>
          </mxGeometry>
        </mxCell>
        <mxCell id="jweQrzOuwB0j65Ltw7Oi-4" value="&lt;font face=&quot;Courier New&quot; style=&quot;font-size: 14px;&quot;&gt;UVData&lt;/font&gt;&lt;br style=&quot;font-size: 14px;&quot;&gt;(pyuvdata)" style="rounded=0;whiteSpace=wrap;html=1;fillColor=#dae8fc;strokeColor=#6c8ebf;fontSize=14;" parent="1" vertex="1">
          <mxGeometry x="270" y="125" width="160" height="60" as="geometry" />
        </mxCell>
        <mxCell id="jweQrzOuwB0j65Ltw7Oi-17" style="edgeStyle=orthogonalEdgeStyle;rounded=0;orthogonalLoop=1;jettySize=auto;html=1;exitX=1;exitY=0.5;exitDx=0;exitDy=0;entryX=0;entryY=0.5;entryDx=0;entryDy=0;curved=1;strokeColor=#FF99CC;fillColor=#dae8fc;" parent="1" source="jweQrzOuwB0j65Ltw7Oi-5" target="jweQrzOuwB0j65Ltw7Oi-13" edge="1">
          <mxGeometry relative="1" as="geometry" />
        </mxCell>
        <mxCell id="jweQrzOuwB0j65Ltw7Oi-5" value="&lt;font face=&quot;Courier New&quot; style=&quot;font-size: 14px;&quot;&gt;Visibility&lt;/font&gt;&lt;br style=&quot;font-size: 14px;&quot;&gt;(ska-sdp-datamodel)" style="rounded=0;whiteSpace=wrap;html=1;fillColor=#dae8fc;strokeColor=#6c8ebf;fontSize=14;" parent="1" vertex="1">
          <mxGeometry x="270" y="360" width="160" height="60" as="geometry" />
        </mxCell>
        <mxCell id="jweQrzOuwB0j65Ltw7Oi-18" style="edgeStyle=orthogonalEdgeStyle;rounded=0;orthogonalLoop=1;jettySize=auto;html=1;exitX=1;exitY=0.5;exitDx=0;exitDy=0;entryX=0;entryY=0.5;entryDx=0;entryDy=0;curved=1;strokeColor=#FF99CC;fillColor=#dae8fc;" parent="1" source="jweQrzOuwB0j65Ltw7Oi-6" target="jweQrzOuwB0j65Ltw7Oi-14" edge="1">
          <mxGeometry relative="1" as="geometry" />
        </mxCell>
        <mxCell id="jweQrzOuwB0j65Ltw7Oi-6" value="&lt;font face=&quot;Courier New&quot; style=&quot;font-size: 14px;&quot;&gt;UVX&lt;/font&gt;&lt;br style=&quot;font-size: 14px;&quot;&gt;(aa-uv)" style="rounded=0;whiteSpace=wrap;html=1;fillColor=#dae8fc;strokeColor=#6c8ebf;fontSize=14;" parent="1" vertex="1">
          <mxGeometry x="270" y="260" width="160" height="60" as="geometry" />
        </mxCell>
        <mxCell id="jweQrzOuwB0j65Ltw7Oi-7" value="UVFITS" style="ellipse;whiteSpace=wrap;html=1;fillColor=#e1d5e7;strokeColor=#9673a6;" parent="1" vertex="1">
          <mxGeometry x="500" y="70" width="110" height="50" as="geometry" />
        </mxCell>
        <mxCell id="jweQrzOuwB0j65Ltw7Oi-8" value="MIRIAD" style="ellipse;whiteSpace=wrap;html=1;fillColor=#e1d5e7;strokeColor=#9673a6;" parent="1" vertex="1">
          <mxGeometry x="500" y="130" width="110" height="50" as="geometry" />
        </mxCell>
        <mxCell id="jweQrzOuwB0j65Ltw7Oi-9" value="MeasurementSet" style="ellipse;whiteSpace=wrap;html=1;fillColor=#e1d5e7;strokeColor=#9673a6;" parent="1" vertex="1">
          <mxGeometry x="500" y="190" width="110" height="50" as="geometry" />
        </mxCell>
        <mxCell id="jweQrzOuwB0j65Ltw7Oi-13" value="SDP Visibility&lt;br&gt;HDF5" style="ellipse;whiteSpace=wrap;html=1;fillColor=#e1d5e7;strokeColor=#9673a6;" parent="1" vertex="1">
          <mxGeometry x="500" y="365" width="110" height="50" as="geometry" />
        </mxCell>
        <mxCell id="jweQrzOuwB0j65Ltw7Oi-14" value="AA-UVX&lt;br&gt;HDF5" style="ellipse;whiteSpace=wrap;html=1;fillColor=#e1d5e7;strokeColor=#9673a6;" parent="1" vertex="1">
          <mxGeometry x="500" y="265" width="110" height="50" as="geometry" />
        </mxCell>
        <mxCell id="jweQrzOuwB0j65Ltw7Oi-22" value="Standard interferometric packages" style="rounded=1;whiteSpace=wrap;html=1;fillColor=#FFEDF6;strokeColor=#F19C99;" parent="1" vertex="1">
          <mxGeometry x="650" y="125" width="120" height="60" as="geometry" />
        </mxCell>
        <mxCell id="jweQrzOuwB0j65Ltw7Oi-23" value="SKA SDP&lt;br&gt;(e.g. &lt;font face=&quot;Courier New&quot;&gt;rascil&lt;/font&gt;)" style="rounded=1;whiteSpace=wrap;html=1;fillColor=#FFEDF6;strokeColor=#F19C99;" parent="1" vertex="1">
          <mxGeometry x="650" y="365" width="120" height="60" as="geometry" />
        </mxCell>
        <mxCell id="jweQrzOuwB0j65Ltw7Oi-24" value="Tools within&lt;br&gt;this package" style="rounded=1;whiteSpace=wrap;html=1;fillColor=#FFEDF6;strokeColor=#F19C99;" parent="1" vertex="1">
          <mxGeometry x="650" y="260" width="120" height="60" as="geometry" />
        </mxCell>
        <mxCell id="jweQrzOuwB0j65Ltw7Oi-25" value="Input format" style="text;html=1;align=center;verticalAlign=middle;resizable=0;points=[];autosize=1;strokeColor=none;fillColor=none;fontSize=18;fontColor=#9AC7BF;" parent="1" vertex="1">
          <mxGeometry x="50" y="20" width="120" height="40" as="geometry" />
        </mxCell>
        <mxCell id="jweQrzOuwB0j65Ltw7Oi-26" value="Python data class" style="text;html=1;align=center;verticalAlign=middle;resizable=0;points=[];autosize=1;strokeColor=none;fillColor=none;fontSize=18;fontColor=#9AC7BF;" parent="1" vertex="1">
          <mxGeometry x="260" y="20" width="170" height="40" as="geometry" />
        </mxCell>
        <mxCell id="jweQrzOuwB0j65Ltw7Oi-27" value="Output format" style="text;html=1;align=center;verticalAlign=middle;resizable=0;points=[];autosize=1;strokeColor=none;fillColor=none;fontSize=18;fontColor=#9AC7BF;" parent="1" vertex="1">
          <mxGeometry x="490" y="20" width="130" height="40" as="geometry" />
        </mxCell>
        <mxCell id="jweQrzOuwB0j65Ltw7Oi-28" value="Software" style="text;html=1;align=center;verticalAlign=middle;resizable=0;points=[];autosize=1;strokeColor=none;fillColor=none;fontSize=18;fontColor=#9AC7BF;" parent="1" vertex="1">
          <mxGeometry x="665" y="20" width="90" height="40" as="geometry" />
        </mxCell>
        <mxCell id="xjqnHqKoICW9RiijOt21-2" style="edgeStyle=orthogonalEdgeStyle;rounded=0;orthogonalLoop=1;jettySize=auto;html=1;exitX=1;exitY=1;exitDx=0;exitDy=0;entryX=0;entryY=0.5;entryDx=0;entryDy=0;curved=1;strokeColor=#FF99CC;fillColor=#dae8fc;" edge="1" parent="1" source="jweQrzOuwB0j65Ltw7Oi-1" target="jweQrzOuwB0j65Ltw7Oi-5">
          <mxGeometry relative="1" as="geometry">
            <mxPoint x="169" y="275" as="sourcePoint" />
            <mxPoint x="280" y="165" as="targetPoint" />
          </mxGeometry>
        </mxCell>
        <mxCell id="xjqnHqKoICW9RiijOt21-5" value="" style="edgeStyle=orthogonalEdgeStyle;rounded=0;orthogonalLoop=1;jettySize=auto;html=1;fillColor=#f8cecc;strokeColor=#FF99CC;endArrow=none;endFill=0;startArrow=classic;startFill=1;" edge="1" parent="1">
          <mxGeometry relative="1" as="geometry">
            <mxPoint x="360" y="185" as="sourcePoint" />
            <mxPoint x="360" y="260" as="targetPoint" />
            <Array as="points">
              <mxPoint x="360" y="220" />
              <mxPoint x="360" y="220" />
            </Array>
          </mxGeometry>
        </mxCell>
      </root>
    </mxGraphModel>
  </diagram>
  <diagram id="mgGhKz8cJ96FhjvD_8l6" name="Page-2">
    <mxGraphModel dx="1026" dy="743" grid="1" gridSize="10" guides="1" tooltips="1" connect="1" arrows="1" fold="1" page="1" pageScale="1" pageWidth="827" pageHeight="1169" math="0" shadow="0">
      <root>
        <mxCell id="0" />
        <mxCell id="1" parent="0" />
        <mxCell id="ifJa1S-OJEdZj1T3Q0xs-12" style="edgeStyle=orthogonalEdgeStyle;rounded=0;orthogonalLoop=1;jettySize=auto;html=1;exitX=0.5;exitY=1;exitDx=0;exitDy=0;entryX=0.5;entryY=0;entryDx=0;entryDy=0;" parent="1" source="a_xk2qkYLFl987AoIPWH-1" target="ifJa1S-OJEdZj1T3Q0xs-5" edge="1">
          <mxGeometry relative="1" as="geometry" />
        </mxCell>
        <mxCell id="a_xk2qkYLFl987AoIPWH-1" value="&lt;font face=&quot;Courier New&quot;&gt;ska_ost_low_uv&lt;/font&gt;&lt;br&gt;post-correlation&lt;br&gt;beamformer" style="rounded=0;whiteSpace=wrap;html=1;fillColor=#dae8fc;strokeColor=#6c8ebf;fontSize=14;" parent="1" vertex="1">
          <mxGeometry x="340" y="630" width="160" height="60" as="geometry" />
        </mxCell>
        <mxCell id="ifJa1S-OJEdZj1T3Q0xs-10" value="" style="edgeStyle=orthogonalEdgeStyle;rounded=0;orthogonalLoop=1;jettySize=auto;html=1;" parent="1" source="L62im_9Aj9F1UVq8GccR-1" target="a_xk2qkYLFl987AoIPWH-1" edge="1">
          <mxGeometry relative="1" as="geometry" />
        </mxCell>
        <mxCell id="L62im_9Aj9F1UVq8GccR-1" value="AAVS3&lt;br&gt;HDF5 visibilities" style="ellipse;whiteSpace=wrap;html=1;fillColor=#e1d5e7;strokeColor=#9673a6;" parent="1" vertex="1">
          <mxGeometry x="350" y="210" width="140" height="70" as="geometry" />
        </mxCell>
        <mxCell id="ifJa1S-OJEdZj1T3Q0xs-14" style="edgeStyle=orthogonalEdgeStyle;rounded=0;orthogonalLoop=1;jettySize=auto;html=1;exitX=0.5;exitY=1;exitDx=0;exitDy=0;entryX=0.5;entryY=0;entryDx=0;entryDy=0;" parent="1" source="ifJa1S-OJEdZj1T3Q0xs-1" target="ifJa1S-OJEdZj1T3Q0xs-13" edge="1">
          <mxGeometry relative="1" as="geometry" />
        </mxCell>
        <mxCell id="ifJa1S-OJEdZj1T3Q0xs-1" value="&lt;font face=&quot;Courier New&quot; style=&quot;font-size: 14px;&quot;&gt;vis_cpu&lt;/font&gt;&lt;br style=&quot;font-size: 14px;&quot;&gt;simulate visibilities" style="rounded=0;whiteSpace=wrap;html=1;fillColor=#dae8fc;strokeColor=#6c8ebf;fontSize=14;" parent="1" vertex="1">
          <mxGeometry x="100" y="430" width="160" height="60" as="geometry" />
        </mxCell>
        <mxCell id="ifJa1S-OJEdZj1T3Q0xs-9" value="" style="edgeStyle=orthogonalEdgeStyle;rounded=0;orthogonalLoop=1;jettySize=auto;html=1;" parent="1" source="ifJa1S-OJEdZj1T3Q0xs-3" target="ifJa1S-OJEdZj1T3Q0xs-1" edge="1">
          <mxGeometry relative="1" as="geometry" />
        </mxCell>
        <mxCell id="ifJa1S-OJEdZj1T3Q0xs-3" value="diffuse sky model" style="ellipse;whiteSpace=wrap;html=1;fillColor=#e1d5e7;strokeColor=#9673a6;" parent="1" vertex="1">
          <mxGeometry x="110" y="310" width="140" height="70" as="geometry" />
        </mxCell>
        <mxCell id="ifJa1S-OJEdZj1T3Q0xs-8" value="" style="edgeStyle=orthogonalEdgeStyle;rounded=0;orthogonalLoop=1;jettySize=auto;html=1;" parent="1" source="ifJa1S-OJEdZj1T3Q0xs-4" target="ifJa1S-OJEdZj1T3Q0xs-3" edge="1">
          <mxGeometry relative="1" as="geometry" />
        </mxCell>
        <mxCell id="ifJa1S-OJEdZj1T3Q0xs-4" value="&lt;font face=&quot;Courier New&quot; style=&quot;font-size: 14px;&quot;&gt;pygdsm&lt;/font&gt;&lt;br style=&quot;font-size: 14px;&quot;&gt;generate sky model" style="rounded=0;whiteSpace=wrap;html=1;fillColor=#dae8fc;strokeColor=#6c8ebf;fontSize=14;" parent="1" vertex="1">
          <mxGeometry x="100" y="210" width="160" height="60" as="geometry" />
        </mxCell>
        <mxCell id="ifJa1S-OJEdZj1T3Q0xs-21" style="edgeStyle=orthogonalEdgeStyle;rounded=0;orthogonalLoop=1;jettySize=auto;html=1;exitX=0.5;exitY=1;exitDx=0;exitDy=0;entryX=0.75;entryY=0;entryDx=0;entryDy=0;" parent="1" source="ifJa1S-OJEdZj1T3Q0xs-5" target="ifJa1S-OJEdZj1T3Q0xs-19" edge="1">
          <mxGeometry relative="1" as="geometry" />
        </mxCell>
        <mxCell id="ifJa1S-OJEdZj1T3Q0xs-5" value="uncalibrated image&lt;br&gt;(healpix)" style="ellipse;whiteSpace=wrap;html=1;fillColor=#e1d5e7;strokeColor=#9673a6;" parent="1" vertex="1">
          <mxGeometry x="350" y="740" width="140" height="70" as="geometry" />
        </mxCell>
        <mxCell id="ifJa1S-OJEdZj1T3Q0xs-16" style="edgeStyle=orthogonalEdgeStyle;rounded=0;orthogonalLoop=1;jettySize=auto;html=1;exitX=0.5;exitY=1;exitDx=0;exitDy=0;entryX=0.5;entryY=0;entryDx=0;entryDy=0;" parent="1" source="ifJa1S-OJEdZj1T3Q0xs-13" target="ifJa1S-OJEdZj1T3Q0xs-15" edge="1">
          <mxGeometry relative="1" as="geometry" />
        </mxCell>
        <mxCell id="ifJa1S-OJEdZj1T3Q0xs-13" value="model visibilities" style="ellipse;whiteSpace=wrap;html=1;fillColor=#e1d5e7;strokeColor=#9673a6;" parent="1" vertex="1">
          <mxGeometry x="110" y="530" width="140" height="70" as="geometry" />
        </mxCell>
        <mxCell id="ifJa1S-OJEdZj1T3Q0xs-18" value="" style="edgeStyle=orthogonalEdgeStyle;rounded=0;orthogonalLoop=1;jettySize=auto;html=1;" parent="1" source="ifJa1S-OJEdZj1T3Q0xs-15" target="ifJa1S-OJEdZj1T3Q0xs-17" edge="1">
          <mxGeometry relative="1" as="geometry" />
        </mxCell>
        <mxCell id="ifJa1S-OJEdZj1T3Q0xs-15" value="&lt;font face=&quot;Courier New&quot;&gt;ska_ost_low_uv&lt;/font&gt;&lt;br&gt;post-correlation&lt;br&gt;beamformer" style="rounded=0;whiteSpace=wrap;html=1;fillColor=#dae8fc;strokeColor=#6c8ebf;fontSize=14;" parent="1" vertex="1">
          <mxGeometry x="100" y="630" width="160" height="60" as="geometry" />
        </mxCell>
        <mxCell id="ifJa1S-OJEdZj1T3Q0xs-20" style="edgeStyle=orthogonalEdgeStyle;rounded=0;orthogonalLoop=1;jettySize=auto;html=1;exitX=0.5;exitY=1;exitDx=0;exitDy=0;entryX=0.25;entryY=0;entryDx=0;entryDy=0;" parent="1" source="ifJa1S-OJEdZj1T3Q0xs-17" target="ifJa1S-OJEdZj1T3Q0xs-19" edge="1">
          <mxGeometry relative="1" as="geometry" />
        </mxCell>
        <mxCell id="ifJa1S-OJEdZj1T3Q0xs-17" value="model image&lt;br&gt;(healpix)" style="ellipse;whiteSpace=wrap;html=1;fillColor=#e1d5e7;strokeColor=#9673a6;" parent="1" vertex="1">
          <mxGeometry x="110" y="740" width="140" height="70" as="geometry" />
        </mxCell>
        <mxCell id="ifJa1S-OJEdZj1T3Q0xs-23" value="" style="edgeStyle=orthogonalEdgeStyle;rounded=0;orthogonalLoop=1;jettySize=auto;html=1;" parent="1" source="ifJa1S-OJEdZj1T3Q0xs-19" target="ifJa1S-OJEdZj1T3Q0xs-22" edge="1">
          <mxGeometry relative="1" as="geometry" />
        </mxCell>
        <mxCell id="ifJa1S-OJEdZj1T3Q0xs-19" value="&lt;font face=&quot;Courier New&quot;&gt;least_sq&lt;/font&gt;&lt;br&gt;scale-offset calibration" style="rounded=0;whiteSpace=wrap;html=1;fillColor=#dae8fc;strokeColor=#6c8ebf;fontSize=14;" parent="1" vertex="1">
          <mxGeometry x="220" y="870" width="160" height="60" as="geometry" />
        </mxCell>
        <mxCell id="ifJa1S-OJEdZj1T3Q0xs-22" value="calibrated image&lt;br&gt;(healpix)" style="ellipse;whiteSpace=wrap;html=1;fillColor=#e1d5e7;strokeColor=#9673a6;" parent="1" vertex="1">
          <mxGeometry x="230" y="980" width="140" height="70" as="geometry" />
        </mxCell>
      </root>
    </mxGraphModel>
  </diagram>
  <diagram id="gxOnlDw_Jz6lA_O1DQR-" name="Page-3">
    <mxGraphModel dx="1026" dy="743" grid="1" gridSize="10" guides="1" tooltips="1" connect="1" arrows="1" fold="1" page="1" pageScale="1" pageWidth="827" pageHeight="1169" math="0" shadow="0">
      <root>
        <mxCell id="0" />
        <mxCell id="1" parent="0" />
        <mxCell id="2I-08ywCjest_QfUckwk-1" value="/" style="ellipse;whiteSpace=wrap;html=1;fillColor=#d5e8d4;strokeColor=#82b366;" parent="1" vertex="1">
          <mxGeometry x="310" y="60" width="120" height="50" as="geometry" />
        </mxCell>
        <mxCell id="2I-08ywCjest_QfUckwk-2" value="" style="shape=hexagon;perimeter=hexagonPerimeter2;whiteSpace=wrap;html=1;fixedSize=1;fillColor=#fff2cc;strokeColor=#d6b656;" parent="1" vertex="1">
          <mxGeometry x="450" y="65" width="120" height="40" as="geometry" />
        </mxCell>
        <mxCell id="2I-08ywCjest_QfUckwk-3" value="antennas" style="ellipse;whiteSpace=wrap;html=1;fillColor=#d5e8d4;strokeColor=#82b366;" parent="1" vertex="1">
          <mxGeometry x="210" y="180" width="120" height="50" as="geometry" />
        </mxCell>
        <mxCell id="2I-08ywCjest_QfUckwk-4" value="phase_center" style="ellipse;whiteSpace=wrap;html=1;fillColor=#d5e8d4;strokeColor=#82b366;" parent="1" vertex="1">
          <mxGeometry x="340" y="180" width="120" height="50" as="geometry" />
        </mxCell>
        <mxCell id="2I-08ywCjest_QfUckwk-5" value="provenance" style="ellipse;whiteSpace=wrap;html=1;fillColor=#d5e8d4;strokeColor=#82b366;" parent="1" vertex="1">
          <mxGeometry x="730" y="180" width="120" height="50" as="geometry" />
        </mxCell>
        <mxCell id="2I-08ywCjest_QfUckwk-6" value="context" style="ellipse;whiteSpace=wrap;html=1;fillColor=#d5e8d4;strokeColor=#82b366;" parent="1" vertex="1">
          <mxGeometry x="600" y="180" width="120" height="50" as="geometry" />
        </mxCell>
        <mxCell id="2I-08ywCjest_QfUckwk-7" value="visibilities" style="ellipse;whiteSpace=wrap;html=1;fillColor=#d5e8d4;strokeColor=#82b366;" parent="1" vertex="1">
          <mxGeometry x="10" y="180" width="170" height="50" as="geometry" />
        </mxCell>
        <mxCell id="2I-08ywCjest_QfUckwk-8" value="coords" style="ellipse;whiteSpace=wrap;html=1;fillColor=#d5e8d4;strokeColor=#82b366;" parent="1" vertex="1">
          <mxGeometry x="50" y="240" width="130" height="40" as="geometry" />
        </mxCell>
        <mxCell id="2I-08ywCjest_QfUckwk-9" value="data" style="rounded=0;whiteSpace=wrap;html=1;fillColor=#dae8fc;strokeColor=#6c8ebf;" parent="1" vertex="1">
          <mxGeometry x="50" y="620" width="140" height="60" as="geometry" />
        </mxCell>
        <mxCell id="2I-08ywCjest_QfUckwk-10" value="time" style="ellipse;whiteSpace=wrap;html=1;fillColor=#d5e8d4;strokeColor=#82b366;" parent="1" vertex="1">
          <mxGeometry x="100" y="300" width="90" height="40" as="geometry" />
        </mxCell>
        <mxCell id="2I-08ywCjest_QfUckwk-11" value="baseline" style="ellipse;whiteSpace=wrap;html=1;fillColor=#d5e8d4;strokeColor=#82b366;" parent="1" vertex="1">
          <mxGeometry x="100" y="445" width="90" height="40" as="geometry" />
        </mxCell>
        <mxCell id="2I-08ywCjest_QfUckwk-12" value="ant1" style="rounded=0;whiteSpace=wrap;html=1;fillColor=#dae8fc;strokeColor=#6c8ebf;" parent="1" vertex="1">
          <mxGeometry x="130" y="495" width="60" height="20" as="geometry" />
        </mxCell>
        <mxCell id="2I-08ywCjest_QfUckwk-13" value="ant2" style="rounded=0;whiteSpace=wrap;html=1;fillColor=#dae8fc;strokeColor=#6c8ebf;" parent="1" vertex="1">
          <mxGeometry x="130" y="525" width="60" height="20" as="geometry" />
        </mxCell>
        <mxCell id="2I-08ywCjest_QfUckwk-14" value="lst" style="rounded=0;whiteSpace=wrap;html=1;fillColor=#dae8fc;strokeColor=#6c8ebf;" parent="1" vertex="1">
          <mxGeometry x="125" y="350" width="60" height="20" as="geometry" />
        </mxCell>
        <mxCell id="2I-08ywCjest_QfUckwk-15" value="mjd" style="rounded=0;whiteSpace=wrap;html=1;fillColor=#dae8fc;strokeColor=#6c8ebf;" parent="1" vertex="1">
          <mxGeometry x="125" y="380" width="60" height="20" as="geometry" />
        </mxCell>
        <mxCell id="2I-08ywCjest_QfUckwk-16" value="unix" style="rounded=0;whiteSpace=wrap;html=1;fillColor=#dae8fc;strokeColor=#6c8ebf;" parent="1" vertex="1">
          <mxGeometry x="125" y="410" width="60" height="20" as="geometry" />
        </mxCell>
        <mxCell id="2I-08ywCjest_QfUckwk-17" value="frequency" style="rounded=0;whiteSpace=wrap;html=1;fillColor=#dae8fc;strokeColor=#6c8ebf;" parent="1" vertex="1">
          <mxGeometry x="50" y="555" width="140" height="25" as="geometry" />
        </mxCell>
        <mxCell id="2I-08ywCjest_QfUckwk-18" value="polarization" style="rounded=0;whiteSpace=wrap;html=1;fillColor=#dae8fc;strokeColor=#6c8ebf;" parent="1" vertex="1">
          <mxGeometry x="50" y="586" width="140" height="25" as="geometry" />
        </mxCell>
        <mxCell id="2I-08ywCjest_QfUckwk-19" value="calibration" style="ellipse;whiteSpace=wrap;html=1;fillColor=#d5e8d4;strokeColor=#82b366;" parent="1" vertex="1">
          <mxGeometry x="470" y="180" width="120" height="50" as="geometry" />
        </mxCell>
      </root>
    </mxGraphModel>
  </diagram>
</mxfile>
